<svg width="93" height="80" viewBox="0 0 93 80" fill="none" xmlns="http://www.w3.org/2000/svg">
<path d="M29.8186 44.0808C29.28 43.5422 28.5541 43.2495 27.7931 43.2495C27.0321 43.2495 26.3062 43.5422 25.7559 44.0808L21.0258 48.8225C20.4873 49.3611 20.1829 50.087 20.1829 50.848C20.1829 51.609 20.4873 52.3349 21.0258 52.8735C22.103 53.9623 23.9997 53.9623 25.0768 52.8735L29.8186 48.1434C30.9308 47.0195 30.9308 45.2047 29.8186 44.0808Z" fill="#8700FF"/>
<path d="M44.6992 72.4961L49.4409 67.7661C50.5532 66.6421 50.5532 64.8274 49.4409 63.7034C48.879 63.1414 48.1413 62.8604 47.4037 62.8604C46.6661 62.8604 45.952 63.1414 45.39 63.6917L40.8355 68.2578C40.8355 68.2578 40.8238 68.2695 40.8121 68.2695L40.6482 68.4451C39.5242 69.5574 39.5242 71.3722 40.6482 72.4961C41.7722 73.6201 43.6103 73.585 44.6992 72.4961Z" fill="#8700FF"/>
<path d="M38.3412 65.7755L42.8957 61.2211C42.8957 61.2211 42.9074 61.2211 42.9074 61.2093L43.6333 60.4952C44.9563 59.1604 45.1202 57.1701 44.0079 56.0578C42.8839 54.9338 40.8936 55.1095 39.5706 56.4325L34.2903 61.7128C32.9672 63.0358 32.7916 65.0262 33.9156 66.1501C35.0396 67.2624 37.0182 67.0985 38.3412 65.7755Z" fill="#8700FF"/>
<path d="M73.4889 43.5888C82.7733 33.0399 81.0171 22.21 75.1397 16.3442C68.9579 10.1624 57.2498 8.5467 46.1857 19.6108C46.1857 19.6225 46.174 19.6225 46.174 19.6225L46.1506 19.6459L43.1768 22.4792C41.8538 23.732 40.9054 25.3243 40.4137 27.0688L37.9433 37.3953C37.7794 38.086 38.154 38.8002 38.8214 39.0578C39.2078 39.1983 39.6293 39.1983 40.0273 39.0578C41.6547 38.449 44.6052 36.845 46.1038 32.8174C46.1155 32.794 46.1272 32.7706 46.1272 32.7472C46.3848 32.0564 46.5955 31.3071 46.7477 30.5227C47.0639 28.8484 47.8717 27.3264 49.0542 26.1439L51.3256 23.8725C52.0163 23.1934 53.1286 23.1934 53.8077 23.8725L73.2196 43.2844C73.3132 43.3781 73.3952 43.4834 73.4889 43.5888Z" fill="#8700FF"/>
<path d="M29.4202 60.3546C30.2749 60.3194 31.1062 59.9331 31.7618 59.2774L36.9602 54.0791C38.2598 52.7795 38.412 50.8125 37.288 49.6885C36.7729 49.1734 36.0353 48.9041 35.2508 48.9509C34.3961 48.9861 33.5649 49.3724 32.9092 50.0164L27.6991 55.2264C26.3996 56.526 26.2591 58.493 27.3713 59.6052C27.8982 60.1321 28.6124 60.3897 29.4202 60.3546Z" fill="#8700FF"/>
<path d="M14.7386 16.3443C11.4018 19.6811 9.6924 24.2004 9.9031 29.0475C10.1607 34.644 12.9589 40.2638 18.0051 45.31L18.7895 46.0944L23.2737 41.5985C24.4796 40.3926 26.0836 39.737 27.793 39.737C29.5024 39.737 31.0947 40.3926 32.3006 41.5985C33.4011 42.7108 33.9865 44.1275 34.1153 45.5793C34.4315 45.509 34.7593 45.4505 35.0871 45.4388C36.8667 45.3568 38.5527 45.9773 39.7703 47.2067C41.0348 48.4594 41.6085 50.1571 41.5382 51.8665C43.353 51.7026 45.1677 52.2528 46.4907 53.5758C48.0362 55.1213 48.5513 57.3224 48.083 59.4181C49.4763 59.5704 50.8461 60.144 51.9232 61.2212L53.5975 62.9071C53.9487 63.2467 54.3702 63.4925 54.8385 63.633C55.8337 63.914 56.9226 63.633 57.6602 62.8954C58.3978 62.1578 58.6671 61.0807 58.3861 60.0855C58.2573 59.6172 58.0114 59.2074 57.6719 58.8562L41.1753 42.3713C40.0045 42.781 38.7283 42.781 37.5692 42.3361C35.2627 41.458 33.9514 38.9876 34.5251 36.5758L37.0189 26.1908C37.698 23.7555 38.9742 21.6246 40.7538 19.9387L42.3812 18.3815C37.6863 14.1315 32.5582 11.7431 27.4418 11.5089C22.5946 11.2865 18.0753 13.0075 14.7386 16.3443Z" fill="#8700FF"/>
<g opacity="1.00001">
<path d="M48.2815 36.4004C47.1575 38.3322 45.7643 39.6903 44.4179 40.6504L60.1418 56.3627C60.5048 56.7256 60.9146 56.9598 61.3712 57.0886C62.3664 57.3695 63.4669 57.0886 64.1928 56.3627C64.9187 55.6368 65.2114 54.5479 64.9187 53.541C64.7899 53.0727 64.5441 52.6629 64.1928 52.3117L48.2815 36.4004Z" fill="#8700FF"/>
</g>
<path d="M67.9159 50.5552C68.9111 50.8244 70 50.5552 70.7376 49.8175C71.4752 49.0799 71.7445 48.0028 71.4635 47.0076C71.3347 46.5393 71.0771 46.1178 70.7376 45.7666L52.5667 27.5957L51.5364 28.626C50.8456 29.3168 50.389 30.2066 50.19 31.1901C50.0729 31.7872 49.9324 32.3609 49.7685 32.9112L66.6749 49.8175C67.0261 50.1688 67.4476 50.4147 67.9159 50.5552Z" fill="#8700FF"/>
<path d="M7.9941 54C7.033 54 6.2359 54.7853 6.2359 55.7582C6.2359 58.2315 4.2315 60.2359 1.75824 60.2359C0.78535 60.2359 0 61.0212 0 61.9941C0 62.967 0.78535 63.7524 1.75824 63.7524C4.2315 63.7524 6.2359 65.7685 6.2359 68.2418C6.2359 69.2147 7.033 70 7.9941 70C8.9553 70 9.7524 69.2147 9.7524 68.2418C9.7524 65.7685 11.7685 63.7524 14.2418 63.7524C15.2147 63.7524 16 62.967 16 61.9941C16 61.0212 15.2147 60.2359 14.2418 60.2359C11.7685 60.2359 9.7524 58.2315 9.7524 55.7582C9.7524 54.7853 8.967 54 7.9941 54Z" fill="#E7CCFF"/>
<path d="M72.9941 64C72.033 64 71.2359 64.7853 71.2359 65.7582C71.2359 68.2315 69.2315 70.2359 66.7582 70.2359C65.7853 70.2359 65 71.0212 65 71.9941C65 72.967 65.7853 73.7524 66.7582 73.7524C69.2315 73.7524 71.2359 75.7685 71.2359 78.2418C71.2359 79.2147 72.033 80 72.9941 80C73.9553 80 74.7524 79.2147 74.7524 78.2418C74.7524 75.7685 76.7685 73.7524 79.2418 73.7524C80.2147 73.7524 81 72.967 81 71.9941C81 71.0212 80.2147 70.2359 79.2418 70.2359C76.7685 70.2359 74.7524 68.2315 74.7524 65.7582C74.7524 64.7853 73.967 64 72.9941 64Z" fill="#E7CCFF"/>
<g opacity="1.00001">
<path d="M84.9946 0C84.0335 0 83.2364 0.785355 83.2364 1.75825C83.2364 4.23153 81.232 6.23594 78.7587 6.23594C77.7858 6.23594 77.0005 7.02124 77.0005 7.99415C77.0005 8.96705 77.7858 9.75246 78.7587 9.75246C81.232 9.75246 83.2364 11.7686 83.2364 14.2419C83.2364 15.2148 84.0335 16.0001 84.9946 16.0001C85.9558 16.0001 86.753 15.2148 86.753 14.2419C86.753 11.7686 88.7691 9.75246 91.2424 9.75246C92.2153 9.75246 93.0006 8.96705 93.0006 7.99415C93.0006 7.02124 92.2153 6.23594 91.2424 6.23594C88.7691 6.23594 86.753 4.23153 86.753 1.75825C86.753 0.785355 85.9675 0 84.9946 0Z" fill="#E7CCFF"/>
</g>
</svg>
