<svg width="90" height="83" viewBox="0 0 90 83" fill="none" xmlns="http://www.w3.org/2000/svg">
<path d="M63.1322 39.6915C62.9336 39.1025 62.404 38.6771 61.8083 38.579L50.8528 37.0083L45.9543 27.1914C45.3916 26.0788 43.5381 26.0788 42.9754 27.1914L38.0769 37.0083L27.1214 38.579C26.4925 38.6771 25.9961 39.1025 25.7975 39.6915C25.5989 40.2805 25.7644 40.935 26.2278 41.3604L34.1713 48.9848L32.2847 59.7507C32.1854 60.3724 32.4171 60.9942 32.9467 61.3541C33.4763 61.7141 34.1382 61.7795 34.7009 61.485L44.4648 56.413L54.2619 61.5177C54.4936 61.6486 54.7584 61.7141 55.0232 61.7141C55.3541 61.7141 55.7182 61.6159 55.983 61.3868C56.4795 61.0269 56.7443 60.4052 56.645 59.7834L54.7584 49.0176L62.7019 41.3931C63.1653 40.935 63.3308 40.2805 63.1322 39.6915Z" fill="#8700FF"/>
<path d="M44.4648 16.8574V2.39307" stroke="#E7CCFF" stroke-width="4" stroke-linecap="round"/>
<path d="M33.0723 19.0713L25.5723 11.5713" stroke="#E7CCFF" stroke-width="4" stroke-linecap="round"/>
<path d="M56.9277 19.0713L64.4277 11.5713" stroke="#E7CCFF" stroke-width="4" stroke-linecap="round"/>
<path d="M6.92055 48.2107C7.1157 48.2937 7.3108 48.3213 7.5059 48.3213C7.8125 48.3213 8.147 48.2107 8.3979 48.0172L13.248 44.0923L19.2689 45.8336C19.7707 45.9719 20.3282 45.8336 20.6905 45.4467C21.0529 45.0597 21.1644 44.5069 20.9693 44.0094L18.7114 38.2049L22.2515 33.0914C22.5581 32.6492 22.586 32.0963 22.3072 31.6265C22.0564 31.1566 21.5546 30.8802 21.025 30.9354L14.7811 31.2671L10.8787 26.3748C10.5721 25.9602 10.0425 25.739 9.5129 25.8496C8.9833 25.9602 8.5651 26.3471 8.4258 26.8447L6.80905 32.8426L0.927548 34.9433C0.425808 35.1092 0.0634384 35.5514 0.00768829 36.0766C-0.0480616 36.6017 0.202808 37.0993 0.648798 37.4033L5.91707 40.7754L6.11219 46.9945C6.11219 47.5197 6.41881 47.9896 6.92055 48.2107Z" fill="#8700FF"/>
<path d="M89.0158 34.9447L83.1288 32.8443L81.5106 26.8469C81.3711 26.3494 80.9526 25.9625 80.4504 25.852C79.9203 25.7414 79.3902 25.9349 79.0833 26.3494L75.261 31.2689L68.9555 30.9373C68.4254 30.9096 67.9232 31.186 67.6721 31.6282C67.421 32.098 67.4489 32.6508 67.7279 33.093L71.2713 38.2059L69.0113 44.0098C68.816 44.5073 68.9276 45.0601 69.2903 45.447C69.653 45.8339 70.1831 45.9721 70.7133 45.8339L76.7397 44.0927L81.5943 48.0173C81.8454 48.2107 82.1523 48.3213 82.4871 48.3213C82.6824 48.3213 82.8777 48.2937 83.073 48.2107C83.5473 47.9896 83.8822 47.5198 83.8822 46.9947L84.0775 40.7762L89.3506 37.4045C89.797 37.1281 90.0481 36.603 89.9923 36.0779C89.8528 35.5804 89.518 35.1382 89.0158 34.9447Z" fill="#8700FF"/>
<path d="M76.8062 65.5923L70.5507 65.731L66.9086 60.6794C66.6028 60.263 66.0745 60.041 65.5463 60.1243C65.018 60.2075 64.601 60.5961 64.4342 61.0957L62.6271 67.0634L56.6774 68.9785C56.177 69.1451 55.8155 69.5614 55.7321 70.0888C55.6487 70.6162 55.8711 71.1435 56.316 71.4211L61.4594 74.9739L61.4316 81.2191C61.4316 81.7465 61.7374 82.2461 62.21 82.4682C62.4046 82.5792 62.6271 82.6069 62.8217 82.6069C63.1275 82.6069 63.4055 82.5237 63.6557 82.3294L68.6323 78.5545L74.5542 80.4975C75.0546 80.664 75.6107 80.5252 75.9721 80.1644C76.3335 79.7758 76.4725 79.2207 76.3057 78.721L74.2484 72.8367L77.9461 67.8128C78.2519 67.3964 78.3075 66.8135 78.0573 66.3417C77.8348 65.8698 77.4178 65.6478 76.8062 65.5923Z" fill="#8700FF"/>
<g opacity="1.00001">
<path d="M33.6842 71.4355C34.1291 71.1298 34.3515 70.6018 34.2681 70.1015C34.1847 69.6013 33.8232 69.1566 33.3228 68.9899L27.3731 67.0723L25.566 61.0974C25.427 60.5971 24.9822 60.2081 24.4539 60.1247C23.9257 60.0413 23.3974 60.2636 23.0916 60.6805L19.4494 65.7384L13.1939 65.5994C12.6657 65.6272 12.1653 65.8774 11.9428 66.3498C11.6926 66.8222 11.7482 67.378 12.054 67.8227L15.7517 72.8528L13.6944 78.7167C13.5276 79.217 13.6388 79.7728 14.028 80.1619C14.3894 80.5231 14.9455 80.6899 15.4459 80.4953L21.3678 78.55L26.3445 82.3295C26.5947 82.5241 26.9005 82.6074 27.1785 82.6074C27.4009 82.6074 27.5956 82.5519 27.7902 82.4685C28.2628 82.2462 28.5686 81.7459 28.5686 81.2179L28.5408 74.9649L33.6842 71.4355Z" fill="#8700FF"/>
</g>
</svg>
