<svg width="57" height="57" viewBox="0 0 57 57" fill="none" xmlns="http://www.w3.org/2000/svg">
<path d="M52.6718 13.225C44.1812 0.0624878 26.7937 -3.83751 13.3468 4.32811C0.224959 12.4937 -4.00004 30.2875 4.49058 43.4094L5.18121 44.4656L2.33746 55.1094L12.9812 52.2656L14.0375 52.9562C18.6281 55.4344 23.625 56.8562 28.5812 56.8562C33.9031 56.8562 39.225 55.4344 43.8156 52.5906C56.9375 44.0594 60.8375 26.6312 52.6718 13.1437V13.225ZM45.2375 40.6062C43.8156 42.7187 42.0281 44.1406 39.55 44.5062C38.1281 44.5062 36.3406 45.1969 29.2718 42.3937C23.2593 39.55 18.2625 34.9187 14.7281 29.5969C12.6156 27.1187 11.5187 23.9094 11.1937 20.7C11.1937 17.8562 12.25 15.3781 14.0375 13.5906C14.7281 12.9 15.4593 12.5344 16.15 12.5344H17.9375C18.6281 12.5344 19.3593 12.5344 19.725 13.9562C20.4156 15.7437 22.2031 20.0094 22.2031 20.375C22.5687 20.7406 22.4062 23.4625 20.7812 25.0062C19.8875 26.0219 19.725 26.0625 20.0906 26.7937C21.5125 28.9062 23.3 31.0594 25.0468 32.8469C27.1593 34.6344 29.3125 36.0562 31.7906 37.1125C32.4812 37.4781 33.2125 37.4781 33.5781 36.7469C33.9437 36.0562 35.6906 34.2687 36.4218 33.5375C37.1125 32.8469 37.4781 32.8469 38.2093 33.1719L43.8968 36.0156C44.5875 36.3812 45.3187 36.7062 45.6843 37.0719C46.05 38.1281 46.05 39.55 45.3187 40.6062H45.2375Z" fill="white"/>
</svg>
